<?xml version="1.0" encoding="iso-8859-1"?>
<!-- Generator: Adobe Illustrator 19.0.0, SVG Export Plug-In . SVG Version: 6.00 Build 0)  -->
<svg version="1.1" id="Layer_1" xmlns="http://www.w3.org/2000/svg" xmlns:xlink="http://www.w3.org/1999/xlink" x="0px" y="0px"
	 viewBox="0 0 344.125 344.125" style="enable-background:new 0 0 344.125 344.125;" xml:space="preserve">
<g>
	<g>
		<g>
			<path d="M92.001,187.29c-10.336-1.316-19.856-2.82-29.108-4.612c-1.128-0.236-2.272,0.532-2.492,1.684
				c-0.22,1.156,0.532,2.272,1.688,2.492c9.34,1.808,18.948,3.332,29.376,4.656c0.092,0.012,0.18,0.016,0.276,0.016
				c1.056,0,1.968-0.784,2.108-1.86C93.989,188.502,93.165,187.438,92.001,187.29z"/>
			<path d="M215.881,191.33c-36.732,2.316-75.16,1.34-114.212-2.9c-1.152-0.124-2.224,0.716-2.348,1.884
				c-0.124,1.168,0.716,2.22,1.884,2.348c25.452,2.764,50.636,4.148,75.272,4.148c13.404,0,26.644-0.408,39.668-1.232
				c1.172-0.072,2.064-1.084,1.992-2.256C218.069,192.15,217.165,191.234,215.881,191.33z"/>
			<path d="M155.537,88.454c-1.172,0.004-2.12,0.964-2.116,2.14c0.004,1.172,0.96,2.116,2.128,2.116h0.012
				c10.06-0.048,20.396-0.432,30.712-1.14c1.172-0.08,2.056-1.096,1.976-2.268c-0.084-1.18-1.168-2.056-2.272-1.98
				C175.757,88.026,165.513,88.406,155.537,88.454z"/>
			<path d="M344.125,199.482c-0.012-17.448-28.164-29.096-51.788-35.792c-0.636-0.184-1.26-0.1-1.836,0.108
				c-0.592-8.508-2.02-16.996-4.424-25.352c-6.584-22.928-19.424-42.92-37.256-58.34c-0.008-0.136-0.816-0.704-2.384-1.956
				c-1.324-1.084-2.6-2.216-3.972-3.256c-1.34-1.012-3.244-0.744-4.26,0.596c-1.012,1.34-0.744,3.244,0.596,4.26
				c0.044,0.032,0.08,0.068,0.124,0.1c-13.14,2.964-27.048,5.168-42.372,6.616c-1.172,0.108-2.028,1.148-1.92,2.316
				c0.104,1.104,1.028,1.928,2.116,1.928c0.068,0,0.14-0.004,0.204-0.008c16.76-1.58,31.868-4.06,46.128-7.448
				c4.768,3.964,9.172,8.268,13.188,12.872c-25.572,6.192-55.772,9.492-87.684,9.492c-31.632,0-61.6-3.248-87.04-9.34
				c14.184-16.408,33.092-29.036,55.444-35.46c17.072-4.904,34.536-5.848,51.9-2.8c1.628,0.292,3.232-0.812,3.52-2.468
				c0.288-1.656-0.816-3.232-2.472-3.52c-18.272-3.208-36.66-2.216-54.628,2.944c-48.26,13.868-81.364,55.164-87.256,102.104
				l-0.36,0.068c-14.02,2.652-51.264,9.688-47.416,30.92c3.112,17.176,31.572,24.868,46.872,29.004l3.16,0.864
				c30.428,8.476,64.068,13.172,105.884,14.768c8.784,0.336,17.176,0.504,25.228,0.504c29.968,0,55.184-2.34,78-7.18l2.212-0.464
				c14.568-3.016,41.676-8.636,43.384-26.352c0.164-1.668-1.06-3.156-2.732-3.32c-1.72-0.14-3.16,1.06-3.32,2.736
				c-0.656,6.796-7.604,11.468-15.84,14.756c0.42-0.344,0.772-0.784,0.96-1.332c4.804-13.8,6.972-28.14,6.66-42.492
				c30.052,8.528,47.284,19.436,47.284,29.92c0,4.736-3.492,9.564-10.372,14.356c-0.164,0.112-0.26,0.272-0.392,0.408
				c-3.056-3.088-7.288-5.008-11.964-5.008c-9.288,0-16.848,7.556-16.848,16.844c0,0.352,0.084,0.688,0.104,1.036
				c-0.116,0.024-0.232,0.004-0.348,0.04c-20.116,6.448-46.552,11.576-76.444,14.82c-1.672,0.184-2.88,1.68-2.692,3.352
				c0.164,1.556,1.484,2.708,3.016,2.708c0.108,0,0.22-0.004,0.328-0.016c13.628-1.48,26.504-3.368,38.472-5.572
				c-5.116,6.7-10.9,12.708-17.2,18.048c-21.856,5.76-47.38,8.828-74.3,8.828c-27.416,0-53.4-3.184-75.532-9.152
				c-7.096-6.04-14.116-13.768-19.692-21.576c-0.021-0.029-0.035-0.044-0.052-0.065c22.726,3.051,47.742,5.01,73.736,5.641h0.076
				c1.648,0,3-1.308,3.04-2.964c0.04-1.68-1.288-3.072-2.964-3.112c-54.236-1.32-104.212-8.36-137.12-19.312
				c-1.596-0.532-3.312,0.332-3.844,1.924c-0.528,1.596,0.336,3.316,1.928,3.844c17.004,5.66,33.704,9.7,57.876,13.06
				c-0.384,0.084,1.968,3.948,2.94,5.316c23.228,32.528,60.576,51.008,99.288,51.008c11.168,0,22.456-1.54,33.548-4.724
				c17.704-5.088,33.628-13.96,47.096-25.916c0.08-0.02,11.964-11.748,16.432-17.66c0.964-1.272,1.292-2.352,1.76-4.496
				c12.704-2.492,22.056-4.956,32.072-8.164c2.644,5.852,8.508,9.952,15.336,9.952c9.288,0,16.848-7.556,16.848-16.848
				c0-2.5-0.584-4.852-1.564-6.984c0.184-0.08,0.368-0.148,0.54-0.268C339.753,212.834,344.125,206.326,344.125,199.482z
				 M78.517,99.938c26.188,6.488,57.276,9.932,90.076,9.932c33.112,0,64.472-3.504,90.808-10.108
				c3.248,4.052,6.176,8.336,8.84,12.792c-29.06,5.944-63.548,9.104-99.98,9.104c-35.876,0-69.864-3.072-98.648-8.844
				C72.285,108.334,75.261,104.034,78.517,99.938z M54.785,153.03c0.24,0.196,0.512,0.356,0.832,0.44
				c19.78,4.996,41.18,8.228,63.6,9.608c0.04,0,0.088,0.004,0.128,0.004c1.12,0,2.056-0.872,2.128-2
				c0.068-1.172-0.824-2.184-1.996-2.256c-22.156-1.36-43.292-4.552-62.82-9.484c-0.4-0.1-0.8-0.04-1.176,0.088
				c2.316-11.488,6.336-22.516,11.892-32.712c29.356,6.008,64.156,9.2,100.888,9.2c37.276,0,72.584-3.28,102.204-9.46
				c4.06,7.44,7.38,15.332,9.776,23.668c2.216,7.716,3.544,15.552,4.14,23.408c-33.224,6.064-72.772,9.284-114.564,9.284
				c-42.292,0-82.348-3.284-115.828-9.496c-0.156-0.028-0.304,0.004-0.456,0.008C53.797,159.866,54.213,156.43,54.785,153.03z
				 M280.895,214.221c0.16-0.082,0.277-0.135,0.322-0.135c0.036,0,0.064-0.012,0.1-0.016
				C281.177,214.122,281.035,214.171,280.895,214.221z M284.249,182.734c-10.552,2.028-21.424,3.772-32.336,5.164
				c-1.164,0.152-1.984,1.216-1.84,2.38c0.14,1.076,1.052,1.856,2.108,1.856c0.092,0,0.184-0.004,0.276-0.016
				c10.544-1.348,21.036-3.04,31.26-4.976c-1.02,7.74-3.608,20.528-6.216,28.024c-0.03,0.086-0.041,0.155-0.046,0.217
				c-6.227,1.966-12.549,3.285-17.054,4.219l-2.244,0.468c-28.44,6.032-60.768,8.104-101.732,6.548
				c-41.328-1.584-74.532-6.208-104.484-14.552l-3.208-0.876c-12.996-3.512-40.052-10.82-42.468-24.216
				c-2.668-14.724,28.792-21.236,41.156-23.592c-1.008,13.896,0.368,28.192,4.432,42.348c0.38,1.332,1.596,2.2,2.92,2.2
				c0.276,0,0.556-0.04,0.84-0.12c1.616-0.464,2.548-2.148,2.08-3.76c-3.504-12.188-4.872-24.492-4.388-36.528
				c33.716,6.248,74,9.548,116.508,9.548c41.84,0,81.464-3.212,114.84-9.268C284.841,172.79,284.709,177.77,284.249,182.734z
				 M73.525,238.454c0.093,0.013,0.19,0.024,0.284,0.036C73.75,238.514,73.668,238.52,73.525,238.454z M200.933,283.362
				c-34.332,9.872-70.564,3.064-98.708-16.752c20.292,4.548,43.2,6.964,67.168,6.964c23.572,0,46.1-2.332,66.124-6.732
				C225.101,274.154,213.485,279.758,200.933,283.362z M315.301,236.846c-5.936,0-10.764-4.832-10.764-10.768
				c0-5.936,4.824-10.764,10.764-10.764s10.764,4.832,10.764,10.764C326.065,232.014,321.241,236.846,315.301,236.846z"/>
			<path d="M31.625,124.726c6.288,0,11.408-5.116,11.408-11.408s-5.12-11.408-11.408-11.408c-6.288,0-11.408,5.116-11.408,11.408
				C20.217,119.606,25.337,124.726,31.625,124.726z M31.625,107.99c2.94,0,5.324,2.388,5.324,5.328s-2.388,5.328-5.324,5.328
				s-5.324-2.388-5.324-5.328S28.689,107.99,31.625,107.99z"/>
			<path d="M255.473,150.874c6.288,0,11.408-5.116,11.408-11.408s-5.12-11.408-11.408-11.408c-6.296,0-11.412,5.116-11.412,11.408
				S249.181,150.874,255.473,150.874z M255.473,134.138c2.94,0,5.324,2.388,5.324,5.328s-2.388,5.328-5.324,5.328
				c-2.94,0-5.332-2.388-5.332-5.328C250.145,136.53,252.533,134.138,255.473,134.138z"/>
			<path d="M61.961,264.038c-6.288,0-11.408,5.116-11.408,11.408s5.12,11.408,11.408,11.408s11.408-5.116,11.408-11.408
				C73.369,269.158,68.249,264.038,61.961,264.038z M61.961,280.778c-2.94,0-5.324-2.388-5.324-5.328s2.388-5.328,5.324-5.328
				c2.94,0,5.324,2.388,5.324,5.328C67.285,278.386,64.897,280.778,61.961,280.778z"/>
		</g>
	</g>
</g>
<g>
</g>
<g>
</g>
<g>
</g>
<g>
</g>
<g>
</g>
<g>
</g>
<g>
</g>
<g>
</g>
<g>
</g>
<g>
</g>
<g>
</g>
<g>
</g>
<g>
</g>
<g>
</g>
<g>
</g>
</svg>
